PathFileType	4	(X/Y/Z)	/Users/itak/Documents/Research/Walk-IL/dataset/trc/00311_00010.trc
DataRate	CameraRate	NumFrames	NumMarkers	Units	OrigDataRate	OrigDataStartFrame	OrigNumFrames
100.000000	100.000000	4	53	mm	100.000000	471	629
Frame#	Time	RPSI			LPSI			L3			STRN			T10			C7			CLAV			RBAK			LBAK			LSHO			LUPA			LAEL			LAOL			LWTS			LWPS			LFRA			LIFD			LHPS			LHTS			RSHO			RUPA			RAEL			RAOL			RWTS			RWPS			RFRA			RIFD			RHTS			RHPS			RBHD			LFHD			RFHD			LBHD			LHIP			RHIP			RASI			LASI			LKNE			LTHI			LANK			LTIP			LTOE			LMT1			LMT5			LHEE			RKNE			RTHI			RANK			RTIP			RTOE			RMT1			RMT5			RHEE			
		X1	Y1	Z1	X2	Y2	Z2	X3	Y3	Z3	X4	Y4	Z4	X5	Y5	Z5	X6	Y6	Z6	X7	Y7	Z7	X8	Y8	Z8	X9	Y9	Z9	X10	Y10	Z10	X11	Y11	Z11	X12	Y12	Z12	X13	Y13	Z13	X14	Y14	Z14	X15	Y15	Z15	X16	Y16	Z16	X17	Y17	Z17	X18	Y18	Z18	X19	Y19	Z19	X20	Y20	Z20	X21	Y21	Z21	X22	Y22	Z22	X23	Y23	Z23	X24	Y24	Z24	X25	Y25	Z25	X26	Y26	Z26	X27	Y27	Z27	X28	Y28	Z28	X29	Y29	Z29	X30	Y30	Z30	X31	Y31	Z31	X32	Y32	Z32	X33	Y33	Z33	X34	Y34	Z34	X35	Y35	Z35	X36	Y36	Z36	X37	Y37	Z37	X38	Y38	Z38	X39	Y39	Z39	X40	Y40	Z40	X41	Y41	Z41	X42	Y42	Z42	X43	Y43	Z43	X44	Y44	Z44	X45	Y45	Z45	X46	Y46	Z46	X47	Y47	Z47	X48	Y48	Z48	X49	Y49	Z49	X50	Y50	Z50	X51	Y51	Z51	X52	Y52	Z52	X53	Y53	Z53	

472	4.71	345.811279296875	972.1771240234375	233.0106048583984	520.7008056640625	968.2295532226562	232.2058868408203	421.7153930664062	1034.006469726562	245.2336578369141	452.9742431640625	1225.822021484375	468.9640197753906	406.7686157226562	1137.817993164062	218.1032104492188	428.211181640625	1385.996948242188	232.2217407226562	450.5901794433594	1321.816528320312	399.0239868164062	343.7229919433594	1247.73193359375	206.281982421875	525.9774169921875	1343.771240234375	202.5102233886719	596.6446533203125	1360.6201171875	278.0013427734375	656.3631591796875	1246.582153320312	223.9463043212891	668.2630004882812	1047.844848632812	198.5404052734375	587.1660766601562	1033.266845703125	174.6273651123047	663.9078979492188	810.501220703125	247.6558074951172	703.1178588867188	811.6773071289062	187.5839538574219	684.7830810546875	943.8276977539062	188.1884765625	664.4889526367188	630.6622314453125	205.0892333984375	701.2643432617188	725.1754150390625	171.8545989990234	690.041015625	711.6134033203125	235.6577453613281	283.0429382324219	1375.696655273438	324.8598937988281	215.6488189697266	1316.56298828125	335.0060424804688	174.0060577392578	1048.148803710938	368.9314270019531	255.7158813476562	1036.717163085938	321.6667785644531	290.7726440429688	876.108154296875	509.5884094238281	210.9634857177734	848.6126098632812	494.146484375	179.5324554443359	988.6000366210938	413.0534973144531	330.480712890625	706.672607421875	573.9957885742188	305.3016357421875	778.3289794921875	578.409423828125	243.2619018554688	754.4642333984375	549.5208740234375	353.1341552734375	1544.364135742188	272.6814575195312	515.2357177734375	1604.137573242188	397.772216796875	428.1180419921875	1598.99560546875	425.8039855957031	493.4555358886719	1544.019409179688	233.0529632568359	619.84228515625	927.58447265625	304.1036987304688	242.6640167236328	914.3636474609375	331.514404296875	314.6896362304688	917.7154541015625	452.5190734863281	567.6044311523438	935.892333984375	440.483642578125	581.8455810546875	491.6677551269531	516.7713012695312	612.3160400390625	622.4547119140625	461.2033386230469	571.0409545898438	41.43751907348633	516.5823974609375	586.1190185546875	256.6906127929688	525.0252685546875	480.649169921875	39.31212997436523	714.4671020507812	452.5062561035156	28.71370697021484	639.1414184570312	563.7694091796875	38.04257583618164	638.4491577148438	517.2136840820312	36.98305892944336	464.5430908203125	297.1737670898438	451.5778503417969	258.4341125488281	261.75146484375	697.2960205078125	352.1305847167969	296.7374877929688	102.4917602539062	-35.98995208740234	308.441162109375	337.722900390625	200.9496612548828	433.8921203613281	39.09761428833008	76.21495056152344	439.9767456054688	58.28392791748047	18.67786407470703	326.378662109375	36.04128646850586	45.2889289855957	317.9115600585938	140.2692718505859	-92.92214202880859	
473	4.72	348.8375854492188	973.0071411132812	242.8694000244141	523.8646850585938	970.4243774414062	243.2767333984375	424.3554382324219	1035.7158203125	255.4736785888672	454.8197021484375	1228.163940429688	478.9764709472656	409.5165405273438	1139.472412109375	228.0249938964844	431.3979187011719	1387.456420898438	241.3025970458984	452.9439086914062	1323.919921875	408.5662231445312	346.6709594726562	1249.384765625	215.704345703125	529.1409301757812	1344.800170898438	212.2458953857422	599.4172973632812	1361.916015625	287.9119873046875	659.5250854492188	1247.534301757812	235.0285491943359	672.2066650390625	1048.612548828125	211.2195587158203	591.1346435546875	1033.497192382812	187.1781616210938	668.9549560546875	811.9771118164062	263.4595031738281	708.1502075195312	812.6251831054688	203.3690185546875	689.1365356445312	944.6171264648438	202.3003234863281	670.9291381835938	631.6021728515625	223.1714324951172	706.9739379882812	725.9819946289062	188.7682647705078	695.8265380859375	713.1124267578125	252.7299041748047	285.9460754394531	1378.043579101562	333.5363464355469	218.2709808349609	1319.235229492188	343.828857421875	176.4991302490234	1051.032836914062	377.8266906738281	258.0546569824219	1039.62451171875	330.4030151367188	288.3403015136719	872.4353637695312	514.3110961914062	208.0824432373047	847.3949584960938	497.2310180664062	180.6202697753906	990.4126586914062	420.35009765625	322.968017578125	699.8084106445312	573.0226440429688	299.5776062011719	771.89013671875	579.7080688476562	237.3396453857422	750.662841796875	549.562255859375	356.1567687988281	1546.170166015625	281.4758911132812	518.3005981445312	1605.957885742188	406.4376525878906	431.2393798828125	1600.921630859375	434.5102844238281	496.4312744140625	1545.648803710938	241.8074493408203	622.774169921875	930.6417236328125	315.7288818359375	245.574462890625	914.6865234375	340.8305969238281	316.8206481933594	919.175048828125	461.6834106445312	569.6129150390625	938.550537109375	451.7489624023438	583.550048828125	492.1006164550781	523.827392578125	614.5377807617188	624.1614379882812	470.7392883300781	571.4554443359375	41.38275146484375	516.9609985351562	587.20654296875	256.7821044921875	528.773681640625	480.5863647460938	38.11380004882812	714.887451171875	452.4686889648438	28.48005867004395	639.1776733398438	563.8440551757812	37.63050842285156	638.7355346679688	517.7449951171875	37.29169845581055	464.7242431640625	297.8459167480469	451.0441589355469	273.5653686523438	264.1751403808594	697.8216552734375	363.8057556152344	297.2720031738281	108.7704544067383	-29.59016418457031	308.0838317871094	338.4014282226562	213.8258361816406	434.0870056152344	38.87977600097656	77.76612091064453	440.2515869140625	61.08646011352539	22.48219108581543	326.8550109863281	37.08784103393555	47.40485000610352	319.376708984375	149.5763702392578	-83.82044219970703	
474	4.73	352.0060424804688	973.7435302734375	252.2235107421875	527.2391357421875	972.5194702148438	254.0886535644531	427.1048889160156	1037.517333984375	265.3770751953125	456.4267578125	1230.4248046875	488.851806640625	412.3703918457031	1141.2275390625	237.7182769775391	434.5827026367188	1389.005859375	250.3867034912109	455.1289978027344	1325.996948242188	418.0411376953125	349.6630554199219	1251.122680664062	224.9668731689453	532.3362426757812	1345.954345703125	222.0401000976562	602.1383056640625	1363.301513671875	297.9542846679688	662.7199096679688	1248.595947265625	246.3013000488281	676.1329345703125	1049.477416992188	224.1435394287109	595.08642578125	1033.918090820312	199.8190612792969	673.9273071289062	813.6307983398438	279.6103820800781	713.1172485351562	813.6935424804688	219.5135955810547	693.45361328125	945.5126342773438	216.6847229003906	677.1834106445312	632.7390747070312	241.6967926025391	712.5641479492188	726.9129638671875	206.0888214111328	701.47119140625	714.7875366210938	270.2070922851562	288.7779541015625	1380.38671875	342.1004028320312	220.8272705078125	1321.922119140625	352.52587890625	178.7172088623047	1053.976196289062	386.6626281738281	259.9888000488281	1042.55615234375	338.8395690917969	285.6584167480469	869.0398559570312	518.6932983398438	204.9266815185547	846.6231689453125	500.2031860351562	181.5098419189453	992.4269409179688	427.6036987304688	314.9675598144531	693.415771484375	571.2258911132812	293.5328063964844	765.7979736328125	580.39453125	231.0982055664062	747.4019775390625	549.2474365234375	359.1054382324219	1547.982788085938	290.2507629394531	521.2936401367188	1607.79833984375	415.0977478027344	434.2679138183594	1602.896728515625	443.19140625	499.3567504882812	1547.248168945312	250.5729370117188	625.7543334960938	933.6011962890625	327.2267150878906	248.5046691894531	915.001708984375	349.5713500976562	318.8612365722656	920.7516479492188	470.5246887207031	571.4644775390625	941.0985717773438	462.7787780761719	585.3742065429688	492.3383483886719	530.0325927734375	616.7352294921875	625.545166015625	479.3931884765625	571.820556640625	41.26481246948242	517.2820434570312	588.3184204101562	256.760498046875	531.8847045898438	480.4835205078125	37.42437362670898	715.0838623046875	452.3797302246094	28.42635726928711	639.1267700195312	563.891845703125	37.35665512084961	638.9150390625	518.2134399414062	37.5502815246582	464.8280334472656	298.0103454589844	450.5188903808594	289.2886962890625	266.3359985351562	698.46044921875	375.3370056152344	297.7480163574219	115.574104309082	-22.37077713012695	307.3956298828125	339.1671752929688	227.4218444824219	434.2327575683594	38.51423263549805	80.0928955078125	440.4871520996094	64.35360717773438	27.24953651428223	327.1923828125	38.77213287353516	49.91843032836914	320.8196716308594	159.2050933837891	-73.72576904296875	
475	4.74	355.3165588378906	974.3759765625	261.0623474121094	530.7864990234375	974.4878540039062	264.5841369628906	429.9833984375	1039.375244140625	274.9406433105469	457.7915649414062	1232.550170898438	498.5741271972656	415.3451843261719	1143.029418945312	247.1727142333984	437.7565002441406	1390.600463867188	259.4750366210938	457.1412658691406	1328.001586914062	427.4437866210938	352.7192687988281	1252.888305664062	234.0554809570312	535.5715942382812	1347.20556640625	231.8863983154297	604.8126220703125	1364.743896484375	308.1305847167969	665.9496459960938	1249.733032226562	257.7607116699219	680.0413208007812	1050.426879882812	237.3429565429688	599.0682373046875	1034.491455078125	212.5527191162109	678.8179321289062	815.4434814453125	296.0820922851562	718.01513671875	814.8549194335938	235.9971313476562	697.7425537109375	946.4822998046875	231.3213195800781	683.2290649414062	634.0520629882812	260.6728820800781	718.0208129882812	727.933837890625	223.8059539794922	706.9451904296875	716.6210327148438	288.0776062011719	291.5285034179688	1382.664672851562	350.5265197753906	223.3120880126953	1324.554931640625	361.0409545898438	180.6429290771484	1056.895874023438	395.322509765625	261.5633850097656	1045.428833007812	346.9512329101562	282.7520751953125	865.947265625	522.7404174804688	201.5320739746094	846.2816772460938	503.1004028320312	182.2007598876953	994.5831298828125	434.7546081542969	306.5951538085938	687.6094970703125	568.7384033203125	287.2760314941406	760.1488037109375	580.5542602539062	224.6109924316406	744.720458984375	548.6868896484375	361.9680480957031	1549.77490234375	299.0047607421875	524.21337890625	1609.626342773438	423.7507019042969	437.1986389160156	1604.888549804688	451.8504028320312	502.2203979492188	1548.794067382812	259.3458557128906	628.7726440429688	936.3935546875	338.5642395019531	251.4480590820312	915.2947387695312	357.7182922363281	320.7682189941406	922.3679809570312	478.9992980957031	573.14453125	943.4609375	473.5303649902344	587.2896118164062	492.3899230957031	535.4933471679688	618.8804321289062	626.5818481445312	487.1849670410156	572.1349487304688	41.10780715942383	517.56298828125	589.4346923828125	256.6303405761719	534.4713745117188	480.3403625488281	37.07286071777344	715.1401977539062	452.2677307128906	28.47037315368652	639.0375366210938	563.938720703125	37.15382385253906	639.0224609375	518.6222534179688	37.7981071472168	464.8876647949219	297.7448120117188	450.0660095214844	305.5138244628906	268.2190246582031	699.2080688476562	386.6263122558594	298.1716003417969	122.9458923339844	-14.24171161651611	306.4796142578125	340.0233764648438	241.7492065429688	434.2332153320312	37.99718475341797	83.4461669921875	440.6391906738281	68.08840942382812	33.21187973022461	327.3331298828125	41.24898910522461	53.00587463378906	322.2374877929688	169.0951995849609	-62.66124725341797	
